# xmcd
#
# Track frame offsets:
#	150
#	13980
#	26743
#	40660
#	55085
#	68177
#	80256
#	92842
#	106533
#	118771
#	132999
#	145790
#	158911
#	173697
#	185670
#	198330
#	210607
#	219664
#	232909
#	245880
#	259089
#	272447
#	285254
#	297259
#
# Disc length: 4124 seconds
#
# Revision: 0
# Processed by: cddbd v1.5.1PL0 Copyright (c) Steve Scherf et al.
# Submitted via: dBpowerAMP V4.0
#
DISCID=59101a18
DTITLE=Le Blues 1925-1952 - Disc 1
DYEAR=1900
DGENRE=Blues
TTITLE0=Mr. Conductor Man (Big Bill Broonzy) 
TTITLE1=Bottle It Up and Go (Tommy McClennan)
TTITLE2=Mississippi Heavy Water Blues (Barbecue Bob)
TTITLE3=Undertaker Blues (Buddy Moss)
TTITLE4=Away Down in That Alley (Lonnie Johnson)
TTITLE5=That Crawling Baby Blues (Blind Lemon Jefferson)
TTITLE6=Stack of Dollars (Big Joe Williams)
TTITLE7=I Love You Baby (Big Joe and His Washboard Band McCoy)
TTITLE8=Wipe 'Em Off (Seven Gallon Jug Band)
TTITLE9=Midnight Hour Blues (Leroy Carr)
TTITLE10=East St. Louis Blues (Faber Smith)
TTITLE11=Humming Blues (James "Bat" Robinson)
TTITLE12=County Jail Special (Champion Jack Dupree)
TTITLE13=Too Many Blues (Curtis Jones)
TTITLE14=Grasshoppers in My Pillow (Leadbelly)
TTITLE15=Good Feeling Blues (Blind Boy Fuller)
TTITLE16=Hootin' the Blues (Sonny Terry)
TTITLE17=Hitler Blues (Florida Kid)
TTITLE18=Training Camp Blues (Roosevelt Sykes)
TTITLE19=County Jail Blues (Big Maceo Merriweather)
TTITLE20=Let's Try It Again (Tampa Red)
TTITLE21=What's Getting Wrong With You (Sonny Boy Williamson)
TTITLE22=Booker T. Blues (Washboard Sam)
TTITLE23=Chauffer Blues (Jazz Gillum)
EXTD=
EXTT0=
EXTT1=
EXTT2=
EXTT3=
EXTT4=
EXTT5=
EXTT6=
EXTT7=
EXTT8=
EXTT9=
EXTT10=
EXTT11=
EXTT12=
EXTT13=
EXTT14=
EXTT15=
EXTT16=
EXTT17=
EXTT18=
EXTT19=
EXTT20=
EXTT21=
EXTT22=
EXTT23=
PLAYORDER=
